<svg xmlns="http://www.w3.org/2000/svg" width="50" height="50" viewBox="0 0 50 50">
    <g fill="none" fill-rule="evenodd">
        <circle cx="25" cy="25" r="25" fill="#0090DD"/>
        <g fill="#FFF">
            <path d="M15.875 27.875v2.083h2.694l-5.513 5.514 1.473 1.473 5.513-5.514v2.694h2.083v-6.25zM30.458 18.069v-2.694h-2.083v6.25h6.25v-2.083h-2.694l5.514-5.514-1.473-1.473zM28.375 27.875v6.25h2.084v-2.694l5.513 5.514 1.473-1.473-5.513-5.514h2.692v-2.083zM13.056 14.028l5.513 5.514h-2.695v2.083h6.251v-6.25h-2.083v2.694l-5.513-5.514z"/>
            <path d="M25.25 22.667a2.084 2.084 0 1 1-.002 4.168 2.084 2.084 0 0 1 .002-4.168m0 6.25a4.172 4.172 0 0 0 4.167-4.167 4.172 4.172 0 0 0-4.167-4.167 4.172 4.172 0 0 0-4.167 4.167 4.172 4.172 0 0 0 4.167 4.167"/>
        </g>
    </g>
</svg>
